<mxfile host="65bd71144e">
    <diagram id="5qtFEe8_QqCSafaba-3f" name="第 1 页">
        <mxGraphModel dx="2449" dy="1829" grid="1" gridSize="10" guides="1" tooltips="1" connect="1" arrows="1" fold="1" page="1" pageScale="1" pageWidth="827" pageHeight="1169" math="0" shadow="0">
            <root>
                <mxCell id="0"/>
                <mxCell id="1" parent="0"/>
                <mxCell id="33" value="" style="group" parent="1" vertex="1" connectable="0">
                    <mxGeometry x="114" y="-200" width="350" height="40" as="geometry"/>
                </mxCell>
                <mxCell id="28" value="IF" style="whiteSpace=wrap;html=1;align=center;fontSize=23;fillColor=#f5f5f5;fontColor=#333333;strokeColor=#666666;" parent="33" vertex="1">
                    <mxGeometry width="70" height="40" as="geometry"/>
                </mxCell>
                <mxCell id="29" value="ID" style="whiteSpace=wrap;html=1;align=center;fontSize=23;fillColor=#dae8fc;strokeColor=#6c8ebf;" parent="33" vertex="1">
                    <mxGeometry x="70" width="70" height="40" as="geometry"/>
                </mxCell>
                <mxCell id="30" value="EX" style="whiteSpace=wrap;html=1;align=center;fontSize=23;fillColor=#d5e8d4;strokeColor=#82b366;" parent="33" vertex="1">
                    <mxGeometry x="140" width="70" height="40" as="geometry"/>
                </mxCell>
                <mxCell id="31" value="MEM" style="whiteSpace=wrap;html=1;align=center;fontSize=23;fillColor=#ffe6cc;strokeColor=#d79b00;" parent="33" vertex="1">
                    <mxGeometry x="210" width="70" height="40" as="geometry"/>
                </mxCell>
                <mxCell id="32" value="RW" style="whiteSpace=wrap;html=1;align=center;fontSize=23;fillColor=#f8cecc;strokeColor=#b85450;" parent="33" vertex="1">
                    <mxGeometry x="280" width="70" height="40" as="geometry"/>
                </mxCell>
                <mxCell id="36" value="" style="group" parent="1" vertex="1" connectable="0">
                    <mxGeometry x="184" y="-160" width="350" height="40" as="geometry"/>
                </mxCell>
                <mxCell id="37" value="IF" style="whiteSpace=wrap;html=1;align=center;fontSize=23;fillColor=#f5f5f5;fontColor=#333333;strokeColor=#666666;" parent="36" vertex="1">
                    <mxGeometry width="70" height="40" as="geometry"/>
                </mxCell>
                <mxCell id="38" value="ID" style="whiteSpace=wrap;html=1;align=center;fontSize=23;fillColor=#dae8fc;strokeColor=#6c8ebf;" parent="36" vertex="1">
                    <mxGeometry x="70" width="70" height="40" as="geometry"/>
                </mxCell>
                <mxCell id="39" value="EX" style="whiteSpace=wrap;html=1;align=center;fontSize=23;fillColor=#d5e8d4;strokeColor=#82b366;" parent="36" vertex="1">
                    <mxGeometry x="140" width="70" height="40" as="geometry"/>
                </mxCell>
                <mxCell id="40" value="MEM" style="whiteSpace=wrap;html=1;align=center;fontSize=23;fillColor=#ffe6cc;strokeColor=#d79b00;" parent="36" vertex="1">
                    <mxGeometry x="210" width="70" height="40" as="geometry"/>
                </mxCell>
                <mxCell id="41" value="RW" style="whiteSpace=wrap;html=1;align=center;fontSize=23;fillColor=#f8cecc;strokeColor=#b85450;" parent="36" vertex="1">
                    <mxGeometry x="280" width="70" height="40" as="geometry"/>
                </mxCell>
                <mxCell id="60" value="" style="group" parent="1" vertex="1" connectable="0">
                    <mxGeometry x="44" y="-240" width="350" height="40" as="geometry"/>
                </mxCell>
                <mxCell id="61" value="IF" style="whiteSpace=wrap;html=1;align=center;fontSize=23;fillColor=#f5f5f5;fontColor=#333333;strokeColor=#666666;" parent="60" vertex="1">
                    <mxGeometry width="70" height="40" as="geometry"/>
                </mxCell>
                <mxCell id="62" value="ID" style="whiteSpace=wrap;html=1;align=center;fontSize=23;fillColor=#dae8fc;strokeColor=#6c8ebf;" parent="60" vertex="1">
                    <mxGeometry x="70" width="80" height="40" as="geometry"/>
                </mxCell>
                <mxCell id="63" value="EX" style="whiteSpace=wrap;html=1;align=center;fontSize=23;fillColor=#d5e8d4;strokeColor=#82b366;" parent="60" vertex="1">
                    <mxGeometry x="140" width="70" height="40" as="geometry"/>
                </mxCell>
                <mxCell id="64" value="MEM" style="whiteSpace=wrap;html=1;align=center;fontSize=23;fillColor=#ffe6cc;strokeColor=#d79b00;" parent="60" vertex="1">
                    <mxGeometry x="210" width="70" height="40" as="geometry"/>
                </mxCell>
                <mxCell id="65" value="RW" style="whiteSpace=wrap;html=1;align=center;fontSize=23;fillColor=#f8cecc;strokeColor=#b85450;" parent="60" vertex="1">
                    <mxGeometry x="280" width="70" height="40" as="geometry"/>
                </mxCell>
                <mxCell id="67" value="li a3 10" style="text;html=1;strokeColor=none;fillColor=none;align=center;verticalAlign=middle;whiteSpace=wrap;rounded=0;fontSize=23;" parent="1" vertex="1">
                    <mxGeometry x="14" y="-195" width="90" height="30" as="geometry"/>
                </mxCell>
                <mxCell id="71" value="load a3 10" style="text;html=1;strokeColor=none;fillColor=none;align=center;verticalAlign=middle;whiteSpace=wrap;rounded=0;fontSize=23;" parent="1" vertex="1">
                    <mxGeometry x="44" y="-150" width="120" height="30" as="geometry"/>
                </mxCell>
                <mxCell id="78" value="ID" style="whiteSpace=wrap;html=1;align=center;fontSize=23;fillColor=#a20025;fontColor=#ffffff;strokeColor=#6F0000;" parent="1" vertex="1">
                    <mxGeometry x="324" y="-120" width="70" height="40" as="geometry"/>
                </mxCell>
                <mxCell id="43" value="IF" style="whiteSpace=wrap;html=1;align=center;fontSize=23;fillColor=#f5f5f5;fontColor=#333333;strokeColor=#666666;" parent="1" vertex="1">
                    <mxGeometry x="254" y="-120" width="70" height="40" as="geometry"/>
                </mxCell>
                <mxCell id="44" value="ID" style="whiteSpace=wrap;html=1;align=center;fontSize=23;fillColor=#dae8fc;strokeColor=#6c8ebf;" parent="1" vertex="1">
                    <mxGeometry x="394" y="-120" width="70" height="40" as="geometry"/>
                </mxCell>
                <mxCell id="45" value="EX" style="whiteSpace=wrap;html=1;align=center;fontSize=23;fillColor=#d5e8d4;strokeColor=#82b366;" parent="1" vertex="1">
                    <mxGeometry x="464" y="-120" width="70" height="40" as="geometry"/>
                </mxCell>
                <mxCell id="46" value="MEM" style="whiteSpace=wrap;html=1;align=center;fontSize=23;fillColor=#ffe6cc;strokeColor=#d79b00;" parent="1" vertex="1">
                    <mxGeometry x="534" y="-120" width="70" height="40" as="geometry"/>
                </mxCell>
                <mxCell id="47" value="RW" style="whiteSpace=wrap;html=1;align=center;fontSize=23;fillColor=#f8cecc;strokeColor=#b85450;" parent="1" vertex="1">
                    <mxGeometry x="604" y="-120" width="70" height="40" as="geometry"/>
                </mxCell>
                <mxCell id="83" value="" style="group" parent="1" vertex="1" connectable="0">
                    <mxGeometry x="180" y="470" width="350" height="40" as="geometry"/>
                </mxCell>
                <mxCell id="84" value="IF" style="whiteSpace=wrap;html=1;align=center;fontSize=23;fillColor=#f5f5f5;fontColor=#333333;strokeColor=#666666;" parent="83" vertex="1">
                    <mxGeometry width="70" height="40" as="geometry"/>
                </mxCell>
                <mxCell id="85" value="ID" style="whiteSpace=wrap;html=1;align=center;fontSize=23;fillColor=#dae8fc;strokeColor=#6c8ebf;" parent="83" vertex="1">
                    <mxGeometry x="70" width="70" height="40" as="geometry"/>
                </mxCell>
                <mxCell id="86" value="EX" style="whiteSpace=wrap;html=1;align=center;fontSize=23;fillColor=#d5e8d4;strokeColor=#82b366;" parent="83" vertex="1">
                    <mxGeometry x="140" width="70" height="40" as="geometry"/>
                </mxCell>
                <mxCell id="87" value="MEM" style="whiteSpace=wrap;html=1;align=center;fontSize=23;fillColor=#ffe6cc;strokeColor=#d79b00;" parent="83" vertex="1">
                    <mxGeometry x="210" width="70" height="40" as="geometry"/>
                </mxCell>
                <mxCell id="88" value="RW" style="whiteSpace=wrap;html=1;align=center;fontSize=23;fillColor=#f8cecc;strokeColor=#b85450;" parent="83" vertex="1">
                    <mxGeometry x="280" width="70" height="40" as="geometry"/>
                </mxCell>
                <mxCell id="89" value="0x00 jal 0x2C" style="text;html=1;strokeColor=none;fillColor=none;align=center;verticalAlign=middle;whiteSpace=wrap;rounded=0;fontSize=23;" parent="1" vertex="1">
                    <mxGeometry x="-20" y="475" width="210" height="30" as="geometry"/>
                </mxCell>
                <mxCell id="90" value="0x04 jarl a3 10" style="text;html=1;strokeColor=none;fillColor=none;align=center;verticalAlign=middle;whiteSpace=wrap;rounded=0;fontSize=23;" parent="1" vertex="1">
                    <mxGeometry x="40" y="520" width="180" height="30" as="geometry"/>
                </mxCell>
                <mxCell id="91" value="" style="group" parent="1" vertex="1" connectable="0">
                    <mxGeometry x="250" y="510" width="350" height="40" as="geometry"/>
                </mxCell>
                <mxCell id="92" value="IF" style="whiteSpace=wrap;html=1;align=center;fontSize=23;fillColor=#f5f5f5;fontColor=#333333;strokeColor=#666666;" parent="91" vertex="1">
                    <mxGeometry width="70" height="40" as="geometry"/>
                </mxCell>
                <mxCell id="93" value="ID" style="whiteSpace=wrap;html=1;align=center;fontSize=23;fillColor=#dae8fc;strokeColor=#6c8ebf;" parent="91" vertex="1">
                    <mxGeometry x="70" width="70" height="40" as="geometry"/>
                </mxCell>
                <mxCell id="94" value="EX" style="whiteSpace=wrap;html=1;align=center;fontSize=23;fillColor=#d5e8d4;strokeColor=#82b366;" parent="91" vertex="1">
                    <mxGeometry x="140" width="70" height="40" as="geometry"/>
                </mxCell>
                <mxCell id="95" value="MEM" style="whiteSpace=wrap;html=1;align=center;fontSize=23;fillColor=#ffe6cc;strokeColor=#d79b00;" parent="91" vertex="1">
                    <mxGeometry x="210" width="70" height="40" as="geometry"/>
                </mxCell>
                <mxCell id="96" value="RW" style="whiteSpace=wrap;html=1;align=center;fontSize=23;fillColor=#f8cecc;strokeColor=#b85450;" parent="91" vertex="1">
                    <mxGeometry x="280" width="70" height="40" as="geometry"/>
                </mxCell>
                <mxCell id="98" value="" style="group" parent="1" vertex="1" connectable="0">
                    <mxGeometry x="390" y="590" width="350" height="40" as="geometry"/>
                </mxCell>
                <mxCell id="99" value="IF" style="whiteSpace=wrap;html=1;align=center;fontSize=23;fillColor=#f5f5f5;fontColor=#333333;strokeColor=#666666;" parent="98" vertex="1">
                    <mxGeometry width="70" height="40" as="geometry"/>
                </mxCell>
                <mxCell id="134" value="ID&lt;br style=&quot;font-size: 17px;&quot;&gt;(nop)" style="whiteSpace=wrap;html=1;align=center;fontSize=17;fillColor=#a20025;fontColor=#ffffff;strokeColor=#6F0000;" parent="98" vertex="1">
                    <mxGeometry x="70" width="70" height="40" as="geometry"/>
                </mxCell>
                <mxCell id="180" value="EX&lt;br style=&quot;font-size: 17px;&quot;&gt;（nop）" style="whiteSpace=wrap;html=1;align=center;fontSize=17;fillColor=#a20025;fontColor=#ffffff;strokeColor=#6F0000;" parent="98" vertex="1">
                    <mxGeometry x="140" width="70" height="40" as="geometry"/>
                </mxCell>
                <mxCell id="181" value="MEM&lt;br style=&quot;font-size: 17px;&quot;&gt;(nop)" style="whiteSpace=wrap;html=1;align=center;fontSize=17;fillColor=#a20025;fontColor=#ffffff;strokeColor=#6F0000;" parent="98" vertex="1">
                    <mxGeometry x="210" width="70" height="40" as="geometry"/>
                </mxCell>
                <mxCell id="182" value="WB&lt;br style=&quot;font-size: 17px;&quot;&gt;(nop)" style="whiteSpace=wrap;html=1;align=center;fontSize=17;fillColor=#a20025;fontColor=#ffffff;strokeColor=#6F0000;" parent="98" vertex="1">
                    <mxGeometry x="280" width="70" height="40" as="geometry"/>
                </mxCell>
                <mxCell id="104" value="0x08 li a3 10" style="text;html=1;strokeColor=none;fillColor=none;align=center;verticalAlign=middle;whiteSpace=wrap;rounded=0;fontSize=23;" parent="1" vertex="1">
                    <mxGeometry x="290" y="640" width="150" height="30" as="geometry"/>
                </mxCell>
                <mxCell id="105" value="" style="group;fontSize=11;" parent="1" vertex="1" connectable="0">
                    <mxGeometry x="320" y="550" width="350" height="40" as="geometry"/>
                </mxCell>
                <mxCell id="106" value="IF" style="whiteSpace=wrap;html=1;align=center;fontSize=23;fillColor=#f5f5f5;fontColor=#333333;strokeColor=#666666;" parent="105" vertex="1">
                    <mxGeometry width="70" height="40" as="geometry"/>
                </mxCell>
                <mxCell id="107" value="ID" style="whiteSpace=wrap;html=1;align=center;fontSize=23;fillColor=#dae8fc;strokeColor=#6c8ebf;" parent="105" vertex="1">
                    <mxGeometry x="70" width="70" height="40" as="geometry"/>
                </mxCell>
                <mxCell id="81" value="EX&lt;br style=&quot;font-size: 17px;&quot;&gt;（nop）" style="whiteSpace=wrap;html=1;align=center;fontSize=17;fillColor=#a20025;fontColor=#ffffff;strokeColor=#6F0000;" parent="105" vertex="1">
                    <mxGeometry x="140" width="70" height="40" as="geometry"/>
                </mxCell>
                <mxCell id="140" value="MEM&lt;br style=&quot;font-size: 17px;&quot;&gt;(nop)" style="whiteSpace=wrap;html=1;align=center;fontSize=17;fillColor=#a20025;fontColor=#ffffff;strokeColor=#6F0000;" parent="105" vertex="1">
                    <mxGeometry x="210" width="70" height="40" as="geometry"/>
                </mxCell>
                <mxCell id="141" value="WB&lt;br style=&quot;font-size: 17px;&quot;&gt;(nop)" style="whiteSpace=wrap;html=1;align=center;fontSize=17;fillColor=#a20025;fontColor=#ffffff;strokeColor=#6F0000;" parent="105" vertex="1">
                    <mxGeometry x="280" width="70" height="40" as="geometry"/>
                </mxCell>
                <mxCell id="112" value="" style="group" parent="1" vertex="1" connectable="0">
                    <mxGeometry x="460" y="630" width="350" height="40" as="geometry"/>
                </mxCell>
                <mxCell id="113" value="IF" style="whiteSpace=wrap;html=1;align=center;fontSize=23;fillColor=#f5f5f5;fontColor=#333333;strokeColor=#666666;" parent="112" vertex="1">
                    <mxGeometry width="70" height="40" as="geometry"/>
                </mxCell>
                <mxCell id="114" value="ID" style="whiteSpace=wrap;html=1;align=center;fontSize=23;fillColor=#dae8fc;strokeColor=#6c8ebf;" parent="112" vertex="1">
                    <mxGeometry x="70" width="70" height="40" as="geometry"/>
                </mxCell>
                <mxCell id="115" value="EX" style="whiteSpace=wrap;html=1;align=center;fontSize=23;fillColor=#d5e8d4;strokeColor=#82b366;" parent="112" vertex="1">
                    <mxGeometry x="140" width="70" height="40" as="geometry"/>
                </mxCell>
                <mxCell id="116" value="MEM" style="whiteSpace=wrap;html=1;align=center;fontSize=23;fillColor=#ffe6cc;strokeColor=#d79b00;" parent="112" vertex="1">
                    <mxGeometry x="210" width="70" height="40" as="geometry"/>
                </mxCell>
                <mxCell id="117" value="RW" style="whiteSpace=wrap;html=1;align=center;fontSize=23;fillColor=#f8cecc;strokeColor=#b85450;" parent="112" vertex="1">
                    <mxGeometry x="280" width="70" height="40" as="geometry"/>
                </mxCell>
                <mxCell id="118" value="" style="group" parent="1" vertex="1" connectable="0">
                    <mxGeometry x="530" y="670" width="350" height="40" as="geometry"/>
                </mxCell>
                <mxCell id="119" value="IF" style="whiteSpace=wrap;html=1;align=center;fontSize=23;fillColor=#f5f5f5;fontColor=#333333;strokeColor=#666666;" parent="118" vertex="1">
                    <mxGeometry width="70" height="40" as="geometry"/>
                </mxCell>
                <mxCell id="120" value="ID" style="whiteSpace=wrap;html=1;align=center;fontSize=23;fillColor=#dae8fc;strokeColor=#6c8ebf;" parent="118" vertex="1">
                    <mxGeometry x="70" width="70" height="40" as="geometry"/>
                </mxCell>
                <mxCell id="121" value="EX" style="whiteSpace=wrap;html=1;align=center;fontSize=23;fillColor=#d5e8d4;strokeColor=#82b366;" parent="118" vertex="1">
                    <mxGeometry x="140" width="70" height="40" as="geometry"/>
                </mxCell>
                <mxCell id="122" value="MEM" style="whiteSpace=wrap;html=1;align=center;fontSize=23;fillColor=#ffe6cc;strokeColor=#d79b00;" parent="118" vertex="1">
                    <mxGeometry x="210" width="70" height="40" as="geometry"/>
                </mxCell>
                <mxCell id="123" value="RW" style="whiteSpace=wrap;html=1;align=center;fontSize=23;fillColor=#f8cecc;strokeColor=#b85450;" parent="118" vertex="1">
                    <mxGeometry x="280" width="70" height="40" as="geometry"/>
                </mxCell>
                <mxCell id="128" value="" style="group" parent="1" vertex="1" connectable="0">
                    <mxGeometry x="110" y="430" width="350" height="40" as="geometry"/>
                </mxCell>
                <mxCell id="129" value="IF" style="whiteSpace=wrap;html=1;align=center;fontSize=23;fillColor=#f5f5f5;fontColor=#333333;strokeColor=#666666;" parent="128" vertex="1">
                    <mxGeometry width="70" height="40" as="geometry"/>
                </mxCell>
                <mxCell id="130" value="ID" style="whiteSpace=wrap;html=1;align=center;fontSize=23;fillColor=#dae8fc;strokeColor=#6c8ebf;" parent="128" vertex="1">
                    <mxGeometry x="70" width="70" height="40" as="geometry"/>
                </mxCell>
                <mxCell id="131" value="EX" style="whiteSpace=wrap;html=1;align=center;fontSize=23;fillColor=#d5e8d4;strokeColor=#82b366;" parent="128" vertex="1">
                    <mxGeometry x="140" width="70" height="40" as="geometry"/>
                </mxCell>
                <mxCell id="132" value="MEM" style="whiteSpace=wrap;html=1;align=center;fontSize=23;fillColor=#ffe6cc;strokeColor=#d79b00;" parent="128" vertex="1">
                    <mxGeometry x="210" width="70" height="40" as="geometry"/>
                </mxCell>
                <mxCell id="133" value="RW" style="whiteSpace=wrap;html=1;align=center;fontSize=23;fillColor=#f8cecc;strokeColor=#b85450;" parent="128" vertex="1">
                    <mxGeometry x="280" width="70" height="40" as="geometry"/>
                </mxCell>
                <mxCell id="145" value="" style="group;fillColor=#a20025;fontColor=#ffffff;strokeColor=#6F0000;" parent="1" vertex="1" connectable="0">
                    <mxGeometry x="394" y="-80" width="350" height="40" as="geometry"/>
                </mxCell>
                <mxCell id="146" value="IF" style="whiteSpace=wrap;html=1;align=center;fontSize=23;fillColor=#f5f5f5;fontColor=#333333;strokeColor=#666666;" parent="145" vertex="1">
                    <mxGeometry width="70" height="40" as="geometry"/>
                </mxCell>
                <mxCell id="147" value="ID" style="whiteSpace=wrap;html=1;align=center;fontSize=23;fillColor=#dae8fc;strokeColor=#6c8ebf;" parent="145" vertex="1">
                    <mxGeometry x="70" width="70" height="40" as="geometry"/>
                </mxCell>
                <mxCell id="148" value="EX" style="whiteSpace=wrap;html=1;align=center;fontSize=23;fillColor=#d5e8d4;strokeColor=#82b366;" parent="145" vertex="1">
                    <mxGeometry x="140" width="70" height="40" as="geometry"/>
                </mxCell>
                <mxCell id="149" value="MEM" style="whiteSpace=wrap;html=1;align=center;fontSize=23;fillColor=#ffe6cc;strokeColor=#d79b00;" parent="145" vertex="1">
                    <mxGeometry x="210" width="70" height="40" as="geometry"/>
                </mxCell>
                <mxCell id="150" value="RW" style="whiteSpace=wrap;html=1;align=center;fontSize=23;fillColor=#f8cecc;strokeColor=#b85450;" parent="145" vertex="1">
                    <mxGeometry x="280" width="70" height="40" as="geometry"/>
                </mxCell>
                <mxCell id="152" value="IF" style="whiteSpace=wrap;html=1;align=center;fontSize=23;fillColor=#a20025;fontColor=#ffffff;strokeColor=#6F0000;" parent="1" vertex="1">
                    <mxGeometry x="324" y="-80" width="70" height="40" as="geometry"/>
                </mxCell>
                <mxCell id="154" value="" style="group" parent="1" vertex="1" connectable="0">
                    <mxGeometry x="464" y="-40" width="350" height="40" as="geometry"/>
                </mxCell>
                <mxCell id="155" value="IF" style="whiteSpace=wrap;html=1;align=center;fontSize=23;fillColor=#f5f5f5;fontColor=#333333;strokeColor=#666666;" parent="154" vertex="1">
                    <mxGeometry width="70" height="40" as="geometry"/>
                </mxCell>
                <mxCell id="156" value="ID" style="whiteSpace=wrap;html=1;align=center;fontSize=23;fillColor=#dae8fc;strokeColor=#6c8ebf;" parent="154" vertex="1">
                    <mxGeometry x="70" width="70" height="40" as="geometry"/>
                </mxCell>
                <mxCell id="157" value="EX" style="whiteSpace=wrap;html=1;align=center;fontSize=23;fillColor=#d5e8d4;strokeColor=#82b366;" parent="154" vertex="1">
                    <mxGeometry x="140" width="70" height="40" as="geometry"/>
                </mxCell>
                <mxCell id="158" value="MEM" style="whiteSpace=wrap;html=1;align=center;fontSize=23;fillColor=#ffe6cc;strokeColor=#d79b00;" parent="154" vertex="1">
                    <mxGeometry x="210" width="70" height="40" as="geometry"/>
                </mxCell>
                <mxCell id="159" value="RW" style="whiteSpace=wrap;html=1;align=center;fontSize=23;fillColor=#f8cecc;strokeColor=#b85450;" parent="154" vertex="1">
                    <mxGeometry x="280" width="70" height="40" as="geometry"/>
                </mxCell>
                <mxCell id="160" value="EX(nop)" style="whiteSpace=wrap;html=1;align=center;fontSize=18;fillColor=#0050ef;strokeColor=#001DBC;fontColor=#ffffff;" parent="1" vertex="1">
                    <mxGeometry x="394" y="-40" width="70" height="40" as="geometry"/>
                </mxCell>
                <mxCell id="163" value="" style="group" parent="1" vertex="1" connectable="0">
                    <mxGeometry x="534" width="350" height="40" as="geometry"/>
                </mxCell>
                <mxCell id="164" value="IF" style="whiteSpace=wrap;html=1;align=center;fontSize=23;fillColor=#f5f5f5;fontColor=#333333;strokeColor=#666666;" parent="163" vertex="1">
                    <mxGeometry width="70" height="40" as="geometry"/>
                </mxCell>
                <mxCell id="165" value="ID" style="whiteSpace=wrap;html=1;align=center;fontSize=23;fillColor=#dae8fc;strokeColor=#6c8ebf;" parent="163" vertex="1">
                    <mxGeometry x="70" width="70" height="40" as="geometry"/>
                </mxCell>
                <mxCell id="166" value="EX" style="whiteSpace=wrap;html=1;align=center;fontSize=23;fillColor=#d5e8d4;strokeColor=#82b366;" parent="163" vertex="1">
                    <mxGeometry x="140" width="70" height="40" as="geometry"/>
                </mxCell>
                <mxCell id="167" value="MEM" style="whiteSpace=wrap;html=1;align=center;fontSize=23;fillColor=#ffe6cc;strokeColor=#d79b00;" parent="163" vertex="1">
                    <mxGeometry x="210" width="70" height="40" as="geometry"/>
                </mxCell>
                <mxCell id="168" value="RW" style="whiteSpace=wrap;html=1;align=center;fontSize=23;fillColor=#f8cecc;strokeColor=#b85450;" parent="163" vertex="1">
                    <mxGeometry x="280" width="70" height="40" as="geometry"/>
                </mxCell>
                <mxCell id="169" value="MEM&lt;br&gt;(nop)" style="whiteSpace=wrap;html=1;align=center;fontSize=18;fillColor=#0050ef;strokeColor=#001DBC;fontColor=#ffffff;" parent="1" vertex="1">
                    <mxGeometry x="464" width="70" height="40" as="geometry"/>
                </mxCell>
                <mxCell id="170" value="" style="group" parent="1" vertex="1" connectable="0">
                    <mxGeometry x="604" y="40" width="350" height="40" as="geometry"/>
                </mxCell>
                <mxCell id="171" value="IF" style="whiteSpace=wrap;html=1;align=center;fontSize=23;fillColor=#f5f5f5;fontColor=#333333;strokeColor=#666666;" parent="170" vertex="1">
                    <mxGeometry width="70" height="40" as="geometry"/>
                </mxCell>
                <mxCell id="172" value="ID" style="whiteSpace=wrap;html=1;align=center;fontSize=23;fillColor=#dae8fc;strokeColor=#6c8ebf;" parent="170" vertex="1">
                    <mxGeometry x="70" width="70" height="40" as="geometry"/>
                </mxCell>
                <mxCell id="173" value="EX" style="whiteSpace=wrap;html=1;align=center;fontSize=23;fillColor=#d5e8d4;strokeColor=#82b366;" parent="170" vertex="1">
                    <mxGeometry x="140" width="70" height="40" as="geometry"/>
                </mxCell>
                <mxCell id="174" value="MEM" style="whiteSpace=wrap;html=1;align=center;fontSize=23;fillColor=#ffe6cc;strokeColor=#d79b00;" parent="170" vertex="1">
                    <mxGeometry x="210" width="70" height="40" as="geometry"/>
                </mxCell>
                <mxCell id="175" value="RW" style="whiteSpace=wrap;html=1;align=center;fontSize=23;fillColor=#f8cecc;strokeColor=#b85450;" parent="170" vertex="1">
                    <mxGeometry x="280" width="70" height="40" as="geometry"/>
                </mxCell>
                <mxCell id="176" value="WB&lt;br&gt;(nop)" style="whiteSpace=wrap;html=1;align=center;fontSize=18;fillColor=#0050ef;strokeColor=#001DBC;fontColor=#ffffff;" parent="1" vertex="1">
                    <mxGeometry x="534" y="40" width="70" height="40" as="geometry"/>
                </mxCell>
                <mxCell id="177" value="addi a4 a4 10" style="text;html=1;strokeColor=none;fillColor=none;align=center;verticalAlign=middle;whiteSpace=wrap;rounded=0;fontSize=23;" parent="1" vertex="1">
                    <mxGeometry x="90" y="-115" width="150" height="30" as="geometry"/>
                </mxCell>
                <mxCell id="178" value="load-use 冒险" style="text;html=1;strokeColor=none;fillColor=none;align=center;verticalAlign=middle;whiteSpace=wrap;rounded=0;fontSize=33;" parent="1" vertex="1">
                    <mxGeometry x="40" y="-320" width="250" height="70" as="geometry"/>
                </mxCell>
                <mxCell id="183" value="" style="group" parent="1" vertex="1" connectable="0">
                    <mxGeometry x="600" y="710" width="350" height="40" as="geometry"/>
                </mxCell>
                <mxCell id="184" value="IF" style="whiteSpace=wrap;html=1;align=center;fontSize=23;fillColor=#f5f5f5;fontColor=#333333;strokeColor=#666666;" parent="183" vertex="1">
                    <mxGeometry width="70" height="40" as="geometry"/>
                </mxCell>
                <mxCell id="185" value="ID" style="whiteSpace=wrap;html=1;align=center;fontSize=23;fillColor=#dae8fc;strokeColor=#6c8ebf;" parent="183" vertex="1">
                    <mxGeometry x="70" width="70" height="40" as="geometry"/>
                </mxCell>
                <mxCell id="186" value="EX" style="whiteSpace=wrap;html=1;align=center;fontSize=23;fillColor=#d5e8d4;strokeColor=#82b366;" parent="183" vertex="1">
                    <mxGeometry x="140" width="70" height="40" as="geometry"/>
                </mxCell>
                <mxCell id="187" value="MEM" style="whiteSpace=wrap;html=1;align=center;fontSize=23;fillColor=#ffe6cc;strokeColor=#d79b00;" parent="183" vertex="1">
                    <mxGeometry x="210" width="70" height="40" as="geometry"/>
                </mxCell>
                <mxCell id="188" value="RW" style="whiteSpace=wrap;html=1;align=center;fontSize=23;fillColor=#f8cecc;strokeColor=#b85450;" parent="183" vertex="1">
                    <mxGeometry x="280" width="70" height="40" as="geometry"/>
                </mxCell>
                <mxCell id="189" value="" style="group" parent="1" vertex="1" connectable="0">
                    <mxGeometry x="670" y="750" width="350" height="40" as="geometry"/>
                </mxCell>
                <mxCell id="190" value="IF" style="whiteSpace=wrap;html=1;align=center;fontSize=23;fillColor=#f5f5f5;fontColor=#333333;strokeColor=#666666;" parent="189" vertex="1">
                    <mxGeometry width="70" height="40" as="geometry"/>
                </mxCell>
                <mxCell id="191" value="ID" style="whiteSpace=wrap;html=1;align=center;fontSize=23;fillColor=#dae8fc;strokeColor=#6c8ebf;" parent="189" vertex="1">
                    <mxGeometry x="70" width="70" height="40" as="geometry"/>
                </mxCell>
                <mxCell id="192" value="EX" style="whiteSpace=wrap;html=1;align=center;fontSize=23;fillColor=#d5e8d4;strokeColor=#82b366;" parent="189" vertex="1">
                    <mxGeometry x="140" width="70" height="40" as="geometry"/>
                </mxCell>
                <mxCell id="193" value="MEM" style="whiteSpace=wrap;html=1;align=center;fontSize=23;fillColor=#ffe6cc;strokeColor=#d79b00;" parent="189" vertex="1">
                    <mxGeometry x="210" width="70" height="40" as="geometry"/>
                </mxCell>
                <mxCell id="194" value="RW" style="whiteSpace=wrap;html=1;align=center;fontSize=23;fillColor=#f8cecc;strokeColor=#b85450;" parent="189" vertex="1">
                    <mxGeometry x="280" width="70" height="40" as="geometry"/>
                </mxCell>
                <mxCell id="195" value="&lt;h1&gt;&lt;span style=&quot;font-size: 33px ; font-weight: 400 ; text-align: center&quot;&gt;load-use 冒险&lt;/span&gt;&lt;br&gt;&lt;/h1&gt;&lt;p&gt;1. PC_REG 保持&lt;/p&gt;&lt;p&gt;2. IF/ID 保持&lt;/p&gt;&lt;p&gt;2.ID/EX flush&lt;/p&gt;" style="text;html=1;strokeColor=none;fillColor=none;spacing=5;spacingTop=-20;whiteSpace=wrap;overflow=hidden;rounded=0;" vertex="1" parent="1">
                    <mxGeometry x="500" y="-355" width="230" height="155" as="geometry"/>
                </mxCell>
                <mxCell id="196" value="&lt;h1&gt;&lt;span style=&quot;font-size: 33px ; font-weight: 400 ; text-align: center&quot;&gt;分支 冒险&lt;/span&gt;&lt;br&gt;&lt;/h1&gt;&lt;p&gt;1. ID/EX flush&lt;/p&gt;&lt;p&gt;2. IF/ID flush&lt;/p&gt;" style="text;html=1;strokeColor=none;fillColor=none;spacing=5;spacingTop=-20;whiteSpace=wrap;overflow=hidden;rounded=0;" vertex="1" parent="1">
                    <mxGeometry x="620" y="402.5" width="230" height="117.5" as="geometry"/>
                </mxCell>
                <mxCell id="313" value="" style="group" vertex="1" connectable="0" parent="1">
                    <mxGeometry x="1170" y="-190" width="350" height="40" as="geometry"/>
                </mxCell>
                <mxCell id="314" value="IF" style="whiteSpace=wrap;html=1;align=center;fontSize=23;fillColor=#f5f5f5;fontColor=#333333;strokeColor=#666666;" vertex="1" parent="313">
                    <mxGeometry width="70" height="40" as="geometry"/>
                </mxCell>
                <mxCell id="315" value="ID" style="whiteSpace=wrap;html=1;align=center;fontSize=23;fillColor=#dae8fc;strokeColor=#6c8ebf;" vertex="1" parent="313">
                    <mxGeometry x="70" width="70" height="40" as="geometry"/>
                </mxCell>
                <mxCell id="316" value="EX" style="whiteSpace=wrap;html=1;align=center;fontSize=23;fillColor=#d5e8d4;strokeColor=#82b366;" vertex="1" parent="313">
                    <mxGeometry x="140" width="70" height="40" as="geometry"/>
                </mxCell>
                <mxCell id="317" value="MEM" style="whiteSpace=wrap;html=1;align=center;fontSize=23;fillColor=#ffe6cc;strokeColor=#d79b00;" vertex="1" parent="313">
                    <mxGeometry x="210" width="70" height="40" as="geometry"/>
                </mxCell>
                <mxCell id="318" value="RW" style="whiteSpace=wrap;html=1;align=center;fontSize=23;fillColor=#f8cecc;strokeColor=#b85450;" vertex="1" parent="313">
                    <mxGeometry x="280" width="70" height="40" as="geometry"/>
                </mxCell>
                <mxCell id="319" value="" style="group" vertex="1" connectable="0" parent="1">
                    <mxGeometry x="1240" y="-150" width="350" height="40" as="geometry"/>
                </mxCell>
                <mxCell id="320" value="IF" style="whiteSpace=wrap;html=1;align=center;fontSize=23;fillColor=#f5f5f5;fontColor=#333333;strokeColor=#666666;" vertex="1" parent="319">
                    <mxGeometry width="70" height="40" as="geometry"/>
                </mxCell>
                <mxCell id="321" value="ID" style="whiteSpace=wrap;html=1;align=center;fontSize=23;fillColor=#dae8fc;strokeColor=#6c8ebf;" vertex="1" parent="319">
                    <mxGeometry x="70" width="70" height="40" as="geometry"/>
                </mxCell>
                <mxCell id="322" value="EX&lt;br style=&quot;font-size: 17px;&quot;&gt;mul0" style="whiteSpace=wrap;html=1;align=center;fontSize=17;fillColor=#d5e8d4;strokeColor=#82b366;" vertex="1" parent="319">
                    <mxGeometry x="140" width="70" height="40" as="geometry"/>
                </mxCell>
                <mxCell id="324" value="RW" style="whiteSpace=wrap;html=1;align=center;fontSize=23;fillColor=#f8cecc;strokeColor=#b85450;" vertex="1" parent="319">
                    <mxGeometry x="280" width="70" height="40" as="geometry"/>
                </mxCell>
                <mxCell id="359" value="MEM&lt;br&gt;(nop)" style="whiteSpace=wrap;html=1;align=center;fontSize=18;fillColor=#0050ef;strokeColor=#001DBC;fontColor=#ffffff;" vertex="1" parent="319">
                    <mxGeometry x="210" width="70" height="40" as="geometry"/>
                </mxCell>
                <mxCell id="325" value="" style="group" vertex="1" connectable="0" parent="1">
                    <mxGeometry x="1100" y="-230" width="350" height="40" as="geometry"/>
                </mxCell>
                <mxCell id="326" value="IF" style="whiteSpace=wrap;html=1;align=center;fontSize=23;fillColor=#f5f5f5;fontColor=#333333;strokeColor=#666666;" vertex="1" parent="325">
                    <mxGeometry width="70" height="40" as="geometry"/>
                </mxCell>
                <mxCell id="327" value="ID" style="whiteSpace=wrap;html=1;align=center;fontSize=23;fillColor=#dae8fc;strokeColor=#6c8ebf;" vertex="1" parent="325">
                    <mxGeometry x="70" width="80" height="40" as="geometry"/>
                </mxCell>
                <mxCell id="328" value="EX" style="whiteSpace=wrap;html=1;align=center;fontSize=23;fillColor=#d5e8d4;strokeColor=#82b366;" vertex="1" parent="325">
                    <mxGeometry x="140" width="70" height="40" as="geometry"/>
                </mxCell>
                <mxCell id="329" value="MEM" style="whiteSpace=wrap;html=1;align=center;fontSize=23;fillColor=#ffe6cc;strokeColor=#d79b00;" vertex="1" parent="325">
                    <mxGeometry x="210" width="70" height="40" as="geometry"/>
                </mxCell>
                <mxCell id="330" value="RW" style="whiteSpace=wrap;html=1;align=center;fontSize=23;fillColor=#f8cecc;strokeColor=#b85450;" vertex="1" parent="325">
                    <mxGeometry x="280" width="70" height="40" as="geometry"/>
                </mxCell>
                <mxCell id="331" value="li a3 10" style="text;html=1;strokeColor=none;fillColor=none;align=center;verticalAlign=middle;whiteSpace=wrap;rounded=0;fontSize=23;" vertex="1" parent="1">
                    <mxGeometry x="1070" y="-185" width="90" height="30" as="geometry"/>
                </mxCell>
                <mxCell id="332" value="li a3 10" style="text;html=1;strokeColor=none;fillColor=none;align=center;verticalAlign=middle;whiteSpace=wrap;rounded=0;fontSize=23;" vertex="1" parent="1">
                    <mxGeometry x="1100" y="-140" width="120" height="30" as="geometry"/>
                </mxCell>
                <mxCell id="334" value="IF" style="whiteSpace=wrap;html=1;align=center;fontSize=23;fillColor=#f5f5f5;fontColor=#333333;strokeColor=#666666;" vertex="1" parent="1">
                    <mxGeometry x="1310" y="-110" width="70" height="40" as="geometry"/>
                </mxCell>
                <mxCell id="335" value="ID" style="whiteSpace=wrap;html=1;align=center;fontSize=23;fillColor=#dae8fc;strokeColor=#6c8ebf;" vertex="1" parent="1">
                    <mxGeometry x="1380" y="-110" width="70" height="40" as="geometry"/>
                </mxCell>
                <mxCell id="336" value="&lt;span style=&quot;font-size: 17px&quot;&gt;EX&lt;/span&gt;&lt;br style=&quot;font-size: 17px&quot;&gt;&lt;span style=&quot;font-size: 17px&quot;&gt;mul1&lt;/span&gt;" style="whiteSpace=wrap;html=1;align=center;fontSize=17;fillColor=#d5e8d4;strokeColor=#82b366;" vertex="1" parent="1">
                    <mxGeometry x="1450" y="-110" width="70" height="40" as="geometry"/>
                </mxCell>
                <mxCell id="338" value="RW" style="whiteSpace=wrap;html=1;align=center;fontSize=23;fillColor=#f8cecc;strokeColor=#b85450;" vertex="1" parent="1">
                    <mxGeometry x="1590" y="-110" width="70" height="40" as="geometry"/>
                </mxCell>
                <mxCell id="346" value="" style="group;fontSize=11;" vertex="1" connectable="0" parent="1">
                    <mxGeometry x="1380" y="-70" width="350" height="40" as="geometry"/>
                </mxCell>
                <mxCell id="347" value="IF" style="whiteSpace=wrap;html=1;align=center;fontSize=23;fillColor=#f5f5f5;fontColor=#333333;strokeColor=#666666;" vertex="1" parent="346">
                    <mxGeometry width="70" height="40" as="geometry"/>
                </mxCell>
                <mxCell id="348" value="ID" style="whiteSpace=wrap;html=1;align=center;fontSize=23;fillColor=#a20025;strokeColor=#6F0000;fontColor=#ffffff;" vertex="1" parent="346">
                    <mxGeometry x="70" width="70" height="40" as="geometry"/>
                </mxCell>
                <mxCell id="349" value="&lt;span style=&quot;font-size: 17px&quot;&gt;EX&lt;/span&gt;&lt;br style=&quot;font-size: 17px&quot;&gt;&lt;span style=&quot;font-size: 17px&quot;&gt;mul2&lt;/span&gt;" style="whiteSpace=wrap;html=1;align=center;fontSize=17;fillColor=#d5e8d4;strokeColor=#82b366;" vertex="1" parent="346">
                    <mxGeometry x="140" width="70" height="40" as="geometry"/>
                </mxCell>
                <mxCell id="351" value="RW" style="whiteSpace=wrap;html=1;align=center;fontSize=23;fillColor=#f8cecc;strokeColor=#b85450;" vertex="1" parent="346">
                    <mxGeometry x="280" width="70" height="40" as="geometry"/>
                </mxCell>
                <mxCell id="401" value="MEM&lt;br&gt;(nop)" style="whiteSpace=wrap;html=1;align=center;fontSize=18;fillColor=#0050ef;strokeColor=#001DBC;fontColor=#ffffff;" vertex="1" parent="346">
                    <mxGeometry x="210" width="70" height="40" as="geometry"/>
                </mxCell>
                <mxCell id="352" value="EX(nop)" style="whiteSpace=wrap;html=1;align=center;fontSize=18;fillColor=#0050ef;strokeColor=#001DBC;fontColor=#ffffff;" vertex="1" parent="1">
                    <mxGeometry x="1340" y="110" width="70" height="40" as="geometry"/>
                </mxCell>
                <mxCell id="353" value="" style="group" vertex="1" connectable="0" parent="1">
                    <mxGeometry x="1450" y="-30" width="350" height="40" as="geometry"/>
                </mxCell>
                <mxCell id="354" value="IF" style="whiteSpace=wrap;html=1;align=center;fontSize=23;fillColor=#a20025;fontColor=#ffffff;strokeColor=#6F0000;" vertex="1" parent="353">
                    <mxGeometry width="70" height="40" as="geometry"/>
                </mxCell>
                <mxCell id="355" value="ID" style="whiteSpace=wrap;html=1;align=center;fontSize=23;fillColor=#a20025;strokeColor=#6F0000;fontColor=#ffffff;" vertex="1" parent="353">
                    <mxGeometry x="70" width="70" height="40" as="geometry"/>
                </mxCell>
                <mxCell id="358" value="RW" style="whiteSpace=wrap;html=1;align=center;fontSize=23;fillColor=#f8cecc;strokeColor=#b85450;" vertex="1" parent="353">
                    <mxGeometry x="280" width="70" height="40" as="geometry"/>
                </mxCell>
                <mxCell id="383" value="&lt;span style=&quot;font-size: 17px&quot;&gt;EX&lt;/span&gt;&lt;br style=&quot;font-size: 17px&quot;&gt;&lt;span style=&quot;font-size: 17px&quot;&gt;mul3&lt;/span&gt;" style="whiteSpace=wrap;html=1;align=center;fontSize=17;fillColor=#d5e8d4;strokeColor=#82b366;" vertex="1" parent="353">
                    <mxGeometry x="140" width="70" height="40" as="geometry"/>
                </mxCell>
                <mxCell id="402" value="MEM&lt;br&gt;(nop)" style="whiteSpace=wrap;html=1;align=center;fontSize=18;fillColor=#0050ef;strokeColor=#001DBC;fontColor=#ffffff;" vertex="1" parent="353">
                    <mxGeometry x="210" width="70" height="40" as="geometry"/>
                </mxCell>
                <mxCell id="360" value="" style="group" vertex="1" connectable="0" parent="1">
                    <mxGeometry x="1520" y="10" width="350" height="40" as="geometry"/>
                </mxCell>
                <mxCell id="361" value="IF" style="whiteSpace=wrap;html=1;align=center;fontSize=23;fillColor=#a20025;fontColor=#ffffff;strokeColor=#6F0000;" vertex="1" parent="360">
                    <mxGeometry width="70" height="40" as="geometry"/>
                </mxCell>
                <mxCell id="362" value="ID" style="whiteSpace=wrap;html=1;align=center;fontSize=23;fillColor=#a20025;strokeColor=#6F0000;fontColor=#ffffff;" vertex="1" parent="360">
                    <mxGeometry x="70" width="70" height="40" as="geometry"/>
                </mxCell>
                <mxCell id="365" value="RW" style="whiteSpace=wrap;html=1;align=center;fontSize=23;fillColor=#f8cecc;strokeColor=#b85450;" vertex="1" parent="360">
                    <mxGeometry x="280" width="70" height="40" as="geometry"/>
                </mxCell>
                <mxCell id="385" value="&lt;span style=&quot;font-size: 17px&quot;&gt;EX&lt;/span&gt;&lt;br style=&quot;font-size: 17px&quot;&gt;&lt;span style=&quot;font-size: 17px&quot;&gt;mul4&lt;/span&gt;" style="whiteSpace=wrap;html=1;align=center;fontSize=17;fillColor=#d5e8d4;strokeColor=#82b366;" vertex="1" parent="360">
                    <mxGeometry x="140" width="70" height="40" as="geometry"/>
                </mxCell>
                <mxCell id="403" value="MEM&lt;br&gt;(nop)" style="whiteSpace=wrap;html=1;align=center;fontSize=18;fillColor=#0050ef;strokeColor=#001DBC;fontColor=#ffffff;" vertex="1" parent="360">
                    <mxGeometry x="210" width="70" height="40" as="geometry"/>
                </mxCell>
                <mxCell id="366" value="WB&lt;br&gt;(nop)" style="whiteSpace=wrap;html=1;align=center;fontSize=18;fillColor=#0050ef;strokeColor=#001DBC;fontColor=#ffffff;" vertex="1" parent="1">
                    <mxGeometry x="1260" y="110" width="70" height="40" as="geometry"/>
                </mxCell>
                <mxCell id="367" value="mul a4 a4 10" style="text;html=1;strokeColor=none;fillColor=none;align=center;verticalAlign=middle;whiteSpace=wrap;rounded=0;fontSize=23;" vertex="1" parent="1">
                    <mxGeometry x="1146" y="-105" width="150" height="30" as="geometry"/>
                </mxCell>
                <mxCell id="369" value="&lt;h1&gt;&lt;span style=&quot;font-size: 33px ; font-weight: 400 ; text-align: center&quot;&gt;乘除法 冒险&lt;/span&gt;&lt;br&gt;&lt;/h1&gt;&lt;p&gt;1. PC_REG 保持&lt;/p&gt;&lt;p&gt;2. IF/ID 保持&lt;/p&gt;&lt;p&gt;2.EX/MEM flush&lt;/p&gt;" style="text;html=1;strokeColor=none;fillColor=none;spacing=5;spacingTop=-20;whiteSpace=wrap;overflow=hidden;rounded=0;" vertex="1" parent="1">
                    <mxGeometry x="1680" y="-257.5" width="230" height="155" as="geometry"/>
                </mxCell>
                <mxCell id="371" value="" style="group" vertex="1" connectable="0" parent="1">
                    <mxGeometry x="1590" y="50" width="350" height="40" as="geometry"/>
                </mxCell>
                <mxCell id="372" value="IF" style="whiteSpace=wrap;html=1;align=center;fontSize=23;fillColor=#a20025;fontColor=#ffffff;strokeColor=#6F0000;" vertex="1" parent="371">
                    <mxGeometry width="70" height="40" as="geometry"/>
                </mxCell>
                <mxCell id="373" value="ID" style="whiteSpace=wrap;html=1;align=center;fontSize=23;fillColor=#a20025;strokeColor=#6F0000;fontColor=#ffffff;" vertex="1" parent="371">
                    <mxGeometry x="70" width="70" height="40" as="geometry"/>
                </mxCell>
                <mxCell id="375" value="MEM" style="whiteSpace=wrap;html=1;align=center;fontSize=23;fillColor=#ffe6cc;strokeColor=#d79b00;" vertex="1" parent="371">
                    <mxGeometry x="210" width="70" height="40" as="geometry"/>
                </mxCell>
                <mxCell id="376" value="RW" style="whiteSpace=wrap;html=1;align=center;fontSize=23;fillColor=#f8cecc;strokeColor=#b85450;" vertex="1" parent="371">
                    <mxGeometry x="280" width="70" height="40" as="geometry"/>
                </mxCell>
                <mxCell id="384" value="&lt;span style=&quot;font-size: 17px&quot;&gt;EX&lt;/span&gt;&lt;br style=&quot;font-size: 17px&quot;&gt;&lt;span style=&quot;font-size: 17px&quot;&gt;mul5&lt;/span&gt;" style="whiteSpace=wrap;html=1;align=center;fontSize=17;fillColor=#d5e8d4;strokeColor=#82b366;" vertex="1" parent="371">
                    <mxGeometry x="140" width="70" height="40" as="geometry"/>
                </mxCell>
                <mxCell id="377" value="" style="group" vertex="1" connectable="0" parent="1">
                    <mxGeometry x="1660" y="90" width="350" height="40" as="geometry"/>
                </mxCell>
                <mxCell id="378" value="IF" style="whiteSpace=wrap;html=1;align=center;fontSize=23;fillColor=#a20025;fontColor=#ffffff;strokeColor=#6F0000;" vertex="1" parent="377">
                    <mxGeometry width="70" height="40" as="geometry"/>
                </mxCell>
                <mxCell id="379" value="ID" style="whiteSpace=wrap;html=1;align=center;fontSize=23;fillColor=#a20025;strokeColor=#6F0000;fontColor=#ffffff;" vertex="1" parent="377">
                    <mxGeometry x="70" width="70" height="40" as="geometry"/>
                </mxCell>
                <mxCell id="380" value="EX" style="whiteSpace=wrap;html=1;align=center;fontSize=23;fillColor=#d5e8d4;strokeColor=#82b366;" vertex="1" parent="377">
                    <mxGeometry x="140" width="70" height="40" as="geometry"/>
                </mxCell>
                <mxCell id="381" value="MEM" style="whiteSpace=wrap;html=1;align=center;fontSize=23;fillColor=#ffe6cc;strokeColor=#d79b00;" vertex="1" parent="377">
                    <mxGeometry x="210" width="70" height="40" as="geometry"/>
                </mxCell>
                <mxCell id="382" value="RW" style="whiteSpace=wrap;html=1;align=center;fontSize=23;fillColor=#f8cecc;strokeColor=#b85450;" vertex="1" parent="377">
                    <mxGeometry x="280" width="70" height="40" as="geometry"/>
                </mxCell>
                <mxCell id="386" value="" style="group" vertex="1" connectable="0" parent="1">
                    <mxGeometry x="1730" y="130" width="350" height="40" as="geometry"/>
                </mxCell>
                <mxCell id="387" value="IF" style="whiteSpace=wrap;html=1;align=center;fontSize=23;fillColor=#a20025;fontColor=#ffffff;strokeColor=#6F0000;" vertex="1" parent="386">
                    <mxGeometry width="70" height="40" as="geometry"/>
                </mxCell>
                <mxCell id="389" value="EX" style="whiteSpace=wrap;html=1;align=center;fontSize=23;fillColor=#d5e8d4;strokeColor=#82b366;" vertex="1" parent="386">
                    <mxGeometry x="140" width="70" height="40" as="geometry"/>
                </mxCell>
                <mxCell id="390" value="MEM" style="whiteSpace=wrap;html=1;align=center;fontSize=23;fillColor=#ffe6cc;strokeColor=#d79b00;" vertex="1" parent="386">
                    <mxGeometry x="210" width="70" height="40" as="geometry"/>
                </mxCell>
                <mxCell id="391" value="RW" style="whiteSpace=wrap;html=1;align=center;fontSize=23;fillColor=#f8cecc;strokeColor=#b85450;" vertex="1" parent="386">
                    <mxGeometry x="280" width="70" height="40" as="geometry"/>
                </mxCell>
                <mxCell id="392" value="ID" style="whiteSpace=wrap;html=1;align=center;fontSize=23;fillColor=#dae8fc;strokeColor=#6c8ebf;" vertex="1" parent="386">
                    <mxGeometry x="70" width="70" height="40" as="geometry"/>
                </mxCell>
                <mxCell id="394" value="" style="group" vertex="1" connectable="0" parent="1">
                    <mxGeometry x="1800" y="170" width="350" height="40" as="geometry"/>
                </mxCell>
                <mxCell id="395" value="IF" style="whiteSpace=wrap;html=1;align=center;fontSize=23;fillColor=#f5f5f5;fontColor=#333333;strokeColor=#666666;" vertex="1" parent="394">
                    <mxGeometry width="70" height="40" as="geometry"/>
                </mxCell>
                <mxCell id="396" value="ID" style="whiteSpace=wrap;html=1;align=center;fontSize=23;fillColor=#dae8fc;strokeColor=#6c8ebf;" vertex="1" parent="394">
                    <mxGeometry x="70" width="80" height="40" as="geometry"/>
                </mxCell>
                <mxCell id="397" value="EX" style="whiteSpace=wrap;html=1;align=center;fontSize=23;fillColor=#d5e8d4;strokeColor=#82b366;" vertex="1" parent="394">
                    <mxGeometry x="140" width="70" height="40" as="geometry"/>
                </mxCell>
                <mxCell id="398" value="MEM" style="whiteSpace=wrap;html=1;align=center;fontSize=23;fillColor=#ffe6cc;strokeColor=#d79b00;" vertex="1" parent="394">
                    <mxGeometry x="210" width="70" height="40" as="geometry"/>
                </mxCell>
                <mxCell id="399" value="RW" style="whiteSpace=wrap;html=1;align=center;fontSize=23;fillColor=#f8cecc;strokeColor=#b85450;" vertex="1" parent="394">
                    <mxGeometry x="280" width="70" height="40" as="geometry"/>
                </mxCell>
                <mxCell id="400" value="MEM&lt;br&gt;(nop)" style="whiteSpace=wrap;html=1;align=center;fontSize=18;fillColor=#0050ef;strokeColor=#001DBC;fontColor=#ffffff;" vertex="1" parent="1">
                    <mxGeometry x="1520" y="-110" width="70" height="40" as="geometry"/>
                </mxCell>
                <mxCell id="404" value="" style="edgeStyle=none;html=1;fontSize=17;" edge="1" parent="1" source="327">
                    <mxGeometry relative="1" as="geometry">
                        <mxPoint x="1215.0769230769229" y="-240.00000000000023" as="targetPoint"/>
                    </mxGeometry>
                </mxCell>
            </root>
        </mxGraphModel>
    </diagram>
</mxfile>